<?xml version="1.0" encoding="utf-8"?>
<!-- Generator: Adobe Illustrator 28.3.0, SVG Export Plug-In . SVG Version: 6.00 Build 0)  -->
<svg version="1.1" id="Layer_1" xmlns="http://www.w3.org/2000/svg" xmlns:xlink="http://www.w3.org/1999/xlink" x="0px" y="0px"
	 viewBox="0 0 640 512" style="enable-background:new 0 0 640 512;" xml:space="preserve">
<path d="M83.6,202.6c-5.4,0-9,2.6-9.6,5.9l-9.6,124l9.6,80.2c0.6,3.3,4.2,5.9,9.6,5.9c4.8,0,9-2.6,9-5.9l11.1-80.2l-11.1-124
	C92.6,205.2,88.4,202.6,83.6,202.6z"/>
<path d="M15.1,287.7c-2.9,0-4.6,1.3-5.2,2.9L0,332.4l9.8,41.1c0.6,1.6,2.3,2.9,5.2,2.9s4.6-1.3,5.2-2.9L32,332.4l-11.7-41.8
	C19.7,289,18,287.7,15.1,287.7L15.1,287.7z"/>
<path d="M244.3,115.9c-1.9-0.9-4.9-1.6-7.4-1.6c-3.9,0-7.4,0.9-9.8,2.2c-3.3,2-5.4,4.9-5.8,7.9v0.9l-5.8,207.4l3,38.2l3,37.2
	c0.5,5.5,7.4,10.1,15.6,10.1s15.1-4.6,15.1-10.1l6.8-75.4l-6.8-208.4C251.5,120.8,248.7,117.5,244.3,115.9L244.3,115.9z"/>
<path d="M547.7,234.2c-12.7,0-24.8,2.6-35.9,7.2C504.3,158.2,434.6,93,349.5,93c-20.9,0-41.1,3.9-59,11c-7.2,2.6-9.2,5.2-9.2,10.8
	v293.1c0,5.9,4.6,10.1,10.1,10.8h256.3c50.8,0,92.3-41.1,92.3-91.9C640,275.6,598.6,234.2,547.7,234.2L547.7,234.2z"/>
<path d="M165.5,163.2c-7.6,0-13.5,3.9-14,9.2l-5.9,160.5l5.9,77c0.5,4.9,6.5,8.8,14,8.8c7.6,0,13.5-3.9,13.5-8.8l7-77l-7-160.5
	C178.4,167,173.1,163.2,165.5,163.2L165.5,163.2z"/>
</svg>
